<?xml version="1.0" standalone="no"?>
<!DOCTYPE svg PUBLIC "-//W3C//DTD SVG 20010904//EN"
 "http://www.w3.org/TR/2001/REC-SVG-20010904/DTD/svg10.dtd">
<svg version="1.0" xmlns="http://www.w3.org/2000/svg"
 width="1012.000000pt" height="724.000000pt" viewBox="0 0 1012.000000 724.000000"
 preserveAspectRatio="xMidYMid meet">

<g transform="translate(0.000000,724.000000) scale(0.100000,-0.100000)"
fill="#000000" stroke="none">
<path d="M118 7093 c6 -2 18 -2 25 0 6 3 1 5 -13 5 -14 0 -19 -2 -12 -5z"/>
<path d="M505 7093 c919 -7 1605 -7 1605 0 0 4 -440 6 -977 5 -538 -2 -820 -4
-628 -5z"/>
<path d="M8325 7080 c-3 -5 3 -10 14 -10 11 0 23 5 26 10 3 6 -3 10 -14 10
-11 0 -23 -4 -26 -10z"/>
<path d="M8393 7083 c9 -2 23 -2 30 0 6 3 -1 5 -18 5 -16 0 -22 -2 -12 -5z"/>
<path d="M8461 7086 c7 -7 219 -9 226 -2 4 3 -47 6 -112 6 -65 0 -116 -2 -114
-4z"/>
<path d="M8717 7079 c7 -7 15 -10 18 -7 3 3 -2 9 -12 12 -14 6 -15 5 -6 -5z"/>
<path d="M8258 7073 c6 -2 18 -2 25 0 6 3 1 5 -13 5 -14 0 -19 -2 -12 -5z"/>
<path d="M8770 7070 c14 -4 41 -8 60 -8 l35 0 -30 8 c-16 4 -43 8 -60 8 -29 0
-29 0 -5 -8z"/>
<path d="M91 6663 c0 -224 4 -417 9 -428 6 -12 9 145 8 403 -1 233 -5 425 -10
428 -4 3 -8 -178 -7 -403z"/>
<path d="M8131 7059 c-25 -5 -49 -13 -55 -19 -16 -16 40 -12 74 5 16 8 35 12
44 9 8 -3 23 -1 33 5 15 9 12 10 -17 10 -19 -1 -55 -5 -79 -10z"/>
<path d="M8899 7044 c20 -8 43 -11 55 -7 19 6 18 8 -9 14 -16 4 -41 7 -55 7
-22 1 -21 0 9 -14z"/>
<path d="M8497 7043 c-16 -4 -17 -34 -15 -500 l3 -496 85 -17 c75 -15 131 -38
180 -72 12 -8 41 3 128 46 l112 56 375 0 c367 0 375 0 421 22 60 30 60 33 -41
244 -174 360 -427 568 -825 678 -94 26 -373 51 -423 39z m869 -525 c1 -21 -1
-40 -5 -43 -5 -2 -136 -5 -292 -5 l-284 -1 -7 28 c-4 15 -5 36 -2 46 5 16 26
17 297 15 l291 -3 2 -37z"/>
<path d="M8030 7036 c0 -2 7 -7 16 -10 8 -3 12 -2 9 4 -6 10 -25 14 -25 6z"/>
<path d="M8265 7033 c-102 -12 -325 -71 -325 -85 0 -4 18 -45 40 -90 l40 -83
0 -122 0 -123 28 -1 c15 -1 61 -1 103 1 78 2 101 -8 80 -34 -9 -11 -7 -15 10
-19 18 -5 20 -2 14 21 -11 44 -11 47 5 43 8 -2 50 -6 93 -9 79 -5 82 -7 71
-49 -6 -22 -11 -23 -115 -23 -90 0 -109 3 -109 15 0 12 -16 14 -90 12 l-90 -2
0 -211 0 -212 89 -50 89 -51 62 30 c33 17 90 36 125 42 l65 11 0 498 0 498
-78 -1 c-42 -1 -90 -4 -107 -6z"/>
<path d="M8970 7030 c-7 -4 2 -10 20 -14 43 -8 52 -8 46 3 -8 12 -52 19 -66
11z"/>
<path d="M5450 7010 c0 -5 5 -10 10 -10 6 0 10 5 10 10 0 6 -4 10 -10 10 -5 0
-10 -4 -10 -10z"/>
<path d="M5585 7009 c-44 -3 40 -6 187 -7 147 -1 269 1 271 6 6 8 -341 10
-458 1z"/>
<path d="M7940 7000 c-12 -8 -12 -10 5 -10 11 0 27 5 35 10 12 8 12 10 -5 10
-11 0 -27 -5 -35 -10z"/>
<path d="M9060 7000 c20 -13 33 -13 25 0 -3 6 -14 10 -23 10 -15 0 -15 -2 -2
-10z"/>
<path d="M6060 6964 c0 -14 4 -23 10 -19 6 3 10 15 10 26 0 10 -4 19 -10 19
-5 0 -10 -12 -10 -26z"/>
<path d="M7861 6974 c-18 -8 -31 -17 -29 -20 7 -7 68 17 68 27 0 5 -1 9 -2 8
-2 0 -18 -7 -37 -15z"/>
<path d="M9194 6946 c16 -14 36 -22 45 -19 9 4 13 3 9 -2 -8 -9 42 -39 50 -30
9 9 -10 22 -73 49 l-60 26 29 -24z"/>
<path d="M7770 6929 c-28 -15 -30 -19 -13 -19 11 0 31 9 44 20 30 25 14 25
-31 -1z"/>
<path d="M7834 6911 c-102 -47 -225 -136 -333 -239 -55 -54 -101 -103 -101
-109 0 -7 7 -18 15 -25 9 -7 36 -37 60 -66 l45 -54 0 -419 0 -419 233 0 233 0
13 68 c17 85 70 188 127 244 24 24 44 45 44 48 0 3 -40 30 -90 59 l-90 53 0
363 0 364 -41 80 c-22 45 -44 81 -47 81 -4 -1 -35 -14 -68 -29z m-191 -563 c4
-10 8 -9 16 2 8 12 13 11 31 -5 20 -18 22 -18 31 -2 12 21 32 22 49 2 11 -13
8 -21 -15 -45 -33 -35 -38 -36 -59 -14 -15 14 -17 14 -22 -1 -4 -8 0 -23 8
-33 9 -9 16 -33 16 -52 l1 -35 -54 3 c-30 2 -55 7 -55 11 0 4 23 7 50 5 54 -2
62 4 30 24 -15 9 -24 9 -39 0 -16 -9 -23 -6 -50 21 -38 39 -39 53 -3 97 27 35
56 44 65 22z m284 -52 c-4 -10 -1 -13 9 -9 12 4 15 0 12 -18 -3 -23 -6 -24
-91 -24 -92 0 -121 11 -99 38 8 9 35 13 82 12 39 -1 73 3 76 7 9 14 16 9 11
-6z m-347 -116 c0 -5 -7 -10 -15 -10 -8 0 -15 5 -15 10 0 6 7 10 15 10 8 0 15
-4 15 -10z m190 -1 c0 -5 -14 -9 -31 -9 -16 0 -28 3 -26 8 7 10 57 12 57 1z
m143 4 c17 -11 -27 -19 -79 -15 -24 2 -44 7 -44 12 0 9 108 12 123 3z m37 -9
c0 -8 -4 -12 -10 -9 -5 3 -10 10 -10 16 0 5 5 9 10 9 6 0 10 -7 10 -16z"/>
<path d="M5459 6873 c-1 -32 -4 -107 -8 -168 l-6 -110 -535 -5 -535 -5 515 -4
c283 -2 529 -4 545 -5 l30 -1 2 178 c2 97 1 177 -2 177 -3 0 -6 -26 -6 -57z"/>
<path d="M6067 6914 c-4 -4 -6 -44 -6 -88 l2 -81 8 80 c9 84 8 101 -4 89z"/>
<path d="M7708 6899 c-20 -11 -24 -29 -7 -29 5 0 7 5 3 12 -5 8 -2 9 9 5 11
-4 17 -1 17 8 0 17 0 17 -22 4z"/>
<path d="M7606 6824 c-25 -19 -44 -39 -41 -45 4 -5 8 -9 11 -9 3 0 2 5 -1 10
-3 6 -2 10 4 10 6 0 21 11 34 24 13 12 30 25 38 28 8 3 11 8 8 12 -3 3 -27
-10 -53 -30z"/>
<path d="M9380 6841 c0 -4 11 -14 25 -21 13 -7 22 -17 19 -22 -3 -4 -1 -8 5
-8 23 0 16 16 -15 37 -19 12 -34 19 -34 14z"/>
<path d="M7509 6741 c-9 -9 -37 -36 -63 -60 -25 -24 -46 -49 -46 -55 0 -6 11
2 25 18 14 16 25 26 25 23 0 -4 19 14 41 38 23 25 40 47 38 49 -2 1 -11 -4
-20 -13z"/>
<path d="M6060 6701 c0 -23 5 -41 10 -41 6 0 10 15 10 34 0 19 -4 38 -10 41
-6 4 -10 -10 -10 -34z"/>
<path d="M9530 6702 c0 -4 12 -19 27 -33 20 -18 23 -19 13 -4 -24 32 -40 47
-40 37z"/>
<path d="M6067 6644 c-4 -4 -7 -17 -7 -28 1 -19 1 -20 11 -3 11 19 8 43 -4 31z"/>
<path d="M9600 6631 c0 -5 5 -13 10 -16 6 -3 10 -2 10 4 0 5 -4 13 -10 16 -5
3 -10 2 -10 -4z"/>
<path d="M2178 6583 c7 -3 16 -2 19 1 4 3 -2 6 -13 5 -11 0 -14 -3 -6 -6z"/>
<path d="M2253 6583 c20 -2 54 -2 75 0 20 2 3 4 -38 4 -41 0 -58 -2 -37 -4z"/>
<path d="M2642 6585 c7 -7 138 -8 145 -1 4 3 -29 6 -72 6 -43 0 -76 -2 -73 -5z"/>
<path d="M2833 6583 c15 -2 37 -2 50 0 12 2 0 4 -28 4 -27 0 -38 -2 -22 -4z"/>
<path d="M3020 6583 c290 -7 540 -7 540 0 0 4 -147 6 -327 5 -181 -1 -276 -4
-213 -5z"/>
<path d="M3592 6585 c7 -7 770 -6 777 0 2 3 -173 5 -389 5 -216 0 -391 -2
-388 -5z"/>
<path d="M6060 6583 c0 -5 60 -7 132 -5 249 4 273 8 71 10 -112 1 -203 -1
-203 -5z"/>
<path d="M6583 6583 c65 -2 168 -2 230 0 62 1 9 3 -118 3 -126 0 -177 -2 -112
-3z"/>
<path d="M6940 6580 c0 -5 4 -10 9 -10 6 0 13 5 16 10 3 6 -1 10 -9 10 -9 0
-16 -4 -16 -10z"/>
<path d="M7030 6584 c52 -7 330 -9 330 -2 0 3 -80 6 -177 6 -98 0 -167 -2
-153 -4z"/>
<path d="M9656 6545 c4 -8 10 -12 15 -9 11 6 2 24 -11 24 -5 0 -7 -7 -4 -15z"/>
<path d="M6480 6316 l0 -234 43 -5 c61 -7 420 -3 432 5 6 4 9 91 7 237 l-3
231 -239 0 -240 0 0 -234z m97 52 c6 -10 53 -13 178 -13 l170 0 3 -24 c5 -31
-12 -40 -53 -31 -21 5 -38 3 -44 -3 -8 -8 -11 -7 -11 2 0 10 -3 11 -13 2 -8
-6 -16 -9 -18 -7 -12 12 -160 5 -191 -8 -13 -6 -18 -4 -18 8 0 13 -3 14 -19 5
-29 -19 -51 -4 -51 34 0 19 3 37 7 40 11 12 52 8 60 -5z m251 -173 c-12 -12
-116 -12 -150 0 -27 9 -38 9 -42 1 -6 -15 -27 14 -23 34 3 20 86 27 98 8 6 -9
9 -9 9 -1 0 7 19 13 48 15 44 3 48 1 56 -25 5 -15 7 -30 4 -32z"/>
<path d="M6990 6065 l0 -485 250 0 250 0 0 423 0 422 -61 63 -61 62 -189 0
-189 0 0 -485z m332 118 c54 -55 48 -137 -15 -180 -102 -70 -228 37 -176 149
32 71 134 88 191 31z m-252 -225 c0 -9 3 -9 11 -1 7 7 21 8 40 3 17 -5 31 -5
35 1 4 6 11 6 20 -2 8 -6 14 -7 14 -2 0 6 18 7 45 3 25 -4 47 -4 49 -1 2 3 37
6 78 6 72 0 73 -1 76 -28 l3 -27 -199 0 c-182 0 -199 1 -199 18 -2 25 5 42 17
42 5 0 10 -5 10 -12z"/>
<path d="M7185 6174 c-28 -21 -3 -35 42 -22 21 6 39 6 46 0 17 -13 57 -22 57
-12 0 5 -12 18 -26 29 -31 25 -90 27 -119 5z"/>
<path d="M7145 6083 c15 -61 86 -99 135 -73 18 10 20 14 9 21 -8 5 -10 9 -4 9
5 0 -1 7 -13 16 -22 15 -25 15 -47 -6 -25 -23 -45 -20 -45 8 -1 19 -23 52 -35
52 -4 0 -4 -12 0 -27z"/>
<path d="M9680 6518 c0 -9 5 -20 11 -23 17 -11 18 -2 3 19 -12 17 -14 17 -14
4z"/>
<path d="M9730 6443 c0 -4 5 -15 10 -23 8 -13 10 -13 10 2 0 9 -4 20 -10 23
-5 3 -10 3 -10 -2z"/>
<path d="M9755 6390 c3 -5 8 -10 11 -10 2 0 4 5 4 10 0 6 -5 10 -11 10 -5 0
-7 -4 -4 -10z"/>
<path d="M9770 6359 c0 -8 5 -21 10 -29 8 -12 9 -10 7 7 -4 26 -17 43 -17 22z"/>
<path d="M9807 6293 c-4 -3 0 -17 8 -30 9 -13 13 -29 9 -36 -5 -9 -4 -9 5 -1
9 8 8 18 -2 42 -7 18 -16 29 -20 25z"/>
<path d="M9850 6176 c0 -8 4 -17 9 -20 5 -4 7 3 4 14 -6 23 -13 26 -13 6z"/>
<path d="M97 6173 c-10 -9 -9 -1083 1 -1083 4 0 9 245 10 545 2 300 2 545 0
545 -3 0 -8 -3 -11 -7z"/>
<path d="M9860 6135 c0 -5 5 -17 10 -25 5 -8 10 -10 10 -5 0 6 -5 17 -10 25
-5 8 -10 11 -10 5z"/>
<path d="M9785 6052 c-27 -15 -74 -17 -415 -20 l-385 -3 -95 -47 c-52 -25 -97
-48 -99 -49 -2 -1 18 -26 44 -55 66 -73 103 -156 120 -265 l7 -43 490 0 490 0
-7 68 c-7 72 -43 254 -70 365 -19 74 -28 79 -80 49z m-443 -169 c11 -10 17
-10 26 -1 18 18 152 20 152 3 0 -8 -5 -17 -11 -21 -8 -4 -2 -12 15 -21 57 -30
18 -111 -41 -84 -18 8 -29 9 -38 1 -10 -8 -15 -8 -20 0 -5 8 -11 8 -21 -1 -17
-14 -43 8 -37 31 3 8 -4 4 -15 -9 -21 -27 -63 -34 -100 -17 -17 7 -29 6 -44
-3 -24 -15 -23 -15 -31 27 -5 24 -3 34 8 38 9 4 30 21 48 39 35 35 79 42 109
18z"/>
<path d="M9300 5824 c0 -44 1 -46 15 -28 19 25 19 48 0 64 -13 11 -15 6 -15
-36z"/>
<path d="M9394 5844 c-4 -14 -2 -30 5 -37 8 -8 11 -1 11 26 0 43 -7 48 -16 11z"/>
<path d="M9450 5819 c0 -10 6 -19 13 -19 6 0 23 -3 36 -7 32 -8 20 11 -19 31
-28 14 -30 13 -30 -5z"/>
<path d="M9245 5821 c-3 -5 -1 -12 5 -16 5 -3 10 1 10 9 0 18 -6 21 -15 7z"/>
<path d="M6480 5815 l0 -235 240 0 240 0 0 88 c1 48 1 116 1 152 1 36 0 102 0
148 l-1 82 -240 0 -240 0 0 -235z m382 73 c23 2 28 -2 28 -20 0 -17 -3 -19
-12 -10 -14 14 -28 16 -28 3 0 -6 12 -16 27 -23 39 -18 52 -61 28 -88 -22 -24
-77 -27 -95 -5 -9 11 -15 12 -20 5 -7 -11 -137 -16 -147 -6 -3 3 -14 1 -24 -5
-20 -10 -28 4 -9 16 17 10 11 25 -10 25 -11 0 -20 7 -20 15 0 8 -7 15 -15 15
-20 0 -20 -44 1 -64 11 -12 12 -16 2 -16 -22 0 -36 14 -43 41 -5 20 -1 32 14
46 13 12 19 27 16 35 -9 24 12 32 24 9 14 -25 41 -35 41 -15 0 8 -4 13 -8 10
-4 -2 -13 4 -20 15 -11 17 -9 19 23 19 l35 0 0 -50 c0 -27 3 -50 8 -51 4 0 21
-2 37 -5 17 -2 46 -2 65 2 32 5 33 7 14 17 -11 7 -18 19 -17 27 5 24 -22 54
-41 47 -20 -8 -13 -45 13 -64 13 -10 8 -12 -27 -11 l-43 0 3 42 3 41 65 3 c36
1 70 4 75 6 6 2 14 1 20 -2 5 -3 22 -5 37 -4z"/>
<path d="M6805 5839 c-4 -11 -4 -23 -1 -26 3 -4 6 -1 6 5 0 7 5 12 11 12 6 0
9 -9 6 -20 -3 -13 0 -20 10 -20 10 0 13 5 8 18 -4 9 -10 25 -12 35 -7 23 -20
22 -28 -4z"/>
<path d="M6863 5774 c-27 -30 -28 -34 -9 -34 18 0 38 26 34 44 -2 12 -8 9 -25
-10z"/>
<path d="M9890 6033 c0 -12 5 -25 10 -28 13 -8 13 15 0 35 -8 12 -10 11 -10
-7z"/>
<path d="M9911 5944 c0 -11 3 -14 6 -6 3 7 2 16 -1 19 -3 4 -6 -2 -5 -13z"/>
<path d="M9920 5902 c0 -36 23 -132 31 -132 5 0 9 9 9 20 0 11 -4 20 -9 20 -4
0 -6 11 -3 25 3 16 0 25 -8 25 -8 0 -11 9 -8 25 3 14 1 28 -3 31 -5 3 -9 -3
-9 -14z"/>
<path d="M8450 5901 c0 -5 11 -8 25 -7 38 4 43 16 7 16 -18 0 -32 -4 -32 -9z"/>
<path d="M8573 5877 c2 -7 13 -12 24 -12 12 0 25 -3 29 -7 4 -5 12 -8 18 -8
19 0 -10 20 -43 30 -24 7 -31 6 -28 -3z"/>
<path d="M8305 5850 c-3 -5 -1 -10 4 -10 6 0 11 5 11 10 0 6 -2 10 -4 10 -3 0
-8 -4 -11 -10z"/>
<path d="M8440 5850 c0 -5 23 -10 50 -10 28 0 50 5 50 10 0 6 -22 10 -50 10
-27 0 -50 -4 -50 -10z"/>
<path d="M8666 5836 c3 -8 14 -16 25 -19 23 -6 16 9 -11 23 -16 8 -18 7 -14
-4z"/>
<path d="M8250 5809 c0 -5 5 -7 10 -4 6 3 10 8 10 11 0 2 -4 4 -10 4 -5 0 -10
-5 -10 -11z"/>
<path d="M8730 5786 c0 -11 30 -39 36 -34 2 3 -5 13 -16 23 -11 10 -20 15 -20
11z"/>
<path d="M8202 5764 c-7 -8 -12 -19 -10 -24 2 -5 13 2 25 15 12 14 16 25 10
25 -7 -1 -18 -7 -25 -16z"/>
<path d="M9962 5720 c0 -19 3 -57 8 -85 6 -40 7 -43 8 -15 0 19 -3 58 -8 85
-6 40 -7 43 -8 15z"/>
<path d="M8165 5700 c-4 -12 -5 -24 -2 -27 3 -2 8 5 12 17 4 12 5 24 2 27 -3
2 -8 -5 -12 -17z"/>
<path d="M8804 5667 c3 -10 6 -34 6 -53 0 -19 4 -34 9 -34 11 0 3 68 -11 90
-8 12 -8 11 -4 -3z"/>
<path d="M8142 5605 c0 -16 2 -22 5 -12 2 9 2 23 0 30 -3 6 -5 -1 -5 -18z"/>
<path d="M9003 5543 l-43 -4 0 -240 0 -239 501 0 502 0 -6 218 c-3 119 -8 226
-11 237 -2 11 -5 23 -5 27 -1 7 -864 8 -938 1z m317 -203 c0 -23 -10 -26 -28
-8 -19 19 -25 2 -11 -30 8 -19 18 -28 27 -24 10 3 13 -1 10 -14 -2 -15 -13
-20 -48 -22 -25 -1 -56 -3 -69 -5 -22 -2 -24 1 -25 61 l-2 62 73 0 c66 0 73
-2 73 -20z m81 -10 c10 -6 19 -18 20 -28 0 -13 3 -11 9 6 12 29 24 28 38 -3 6
-14 17 -25 24 -25 9 0 9 3 0 12 -22 22 -14 41 15 35 15 -3 35 0 46 7 15 8 21
8 24 -2 3 -6 10 -9 16 -5 18 11 81 10 90 -1 5 -8 9 -8 15 -1 15 21 36 10 43
-22 5 -25 3 -33 -7 -33 -8 0 -14 6 -14 13 0 8 -3 8 -9 -2 -8 -12 -12 -12 -25
-2 -9 8 -16 9 -16 4 0 -5 -17 -10 -38 -11 -33 -2 -40 1 -51 24 -8 19 -15 24
-23 16 -13 -13 -1 -35 14 -26 6 4 9 1 6 -7 -3 -8 -14 -13 -24 -12 -10 2 -58 4
-106 4 l-88 2 0 27 c0 40 9 46 41 30z"/>
<path d="M9610 5300 c0 -5 5 -10 10 -10 6 0 10 5 10 10 0 6 -4 10 -10 10 -5 0
-10 -4 -10 -10z"/>
<path d="M8140 5525 c0 -8 2 -15 4 -15 2 0 6 7 10 15 3 8 1 15 -4 15 -6 0 -10
-7 -10 -15z"/>
<path d="M8174 5533 c7 -7 87 -5 95 3 2 2 -20 4 -49 4 -29 0 -50 -3 -46 -7z"/>
<path d="M8383 5533 c9 -2 25 -2 35 0 9 3 1 5 -18 5 -19 0 -27 -2 -17 -5z"/>
<path d="M8448 5505 c2 -19 6 -35 8 -35 2 0 4 16 4 35 0 19 -4 35 -8 35 -4 0
-6 -16 -4 -35z"/>
<path d="M8490 5513 c0 -16 4 -23 8 -17 4 6 14 14 22 17 12 4 11 6 -3 6 -10 1
-15 6 -12 11 3 6 1 10 -4 10 -6 0 -11 -12 -11 -27z"/>
<path d="M8765 5530 c3 -5 17 -10 30 -10 13 0 26 -6 28 -12 3 -7 6 -3 6 10 1
19 -4 22 -35 22 -21 0 -33 -4 -29 -10z"/>
<path d="M8308 5513 c7 -3 16 -2 19 1 4 3 -2 6 -13 5 -11 0 -14 -3 -6 -6z"/>
<path d="M9978 5480 c2 -22 6 -40 8 -40 2 0 4 18 4 40 0 22 -3 40 -8 40 -4 0
-6 -18 -4 -40z"/>
<path d="M8800 5469 c0 -17 -4 -19 -22 -13 -23 7 -23 6 -4 -14 18 -21 18 -22
1 -49 -17 -25 -17 -27 -1 -14 31 26 59 111 36 111 -5 0 -10 -9 -10 -21z"/>
<path d="M8159 5443 c4 -10 14 -33 22 -50 7 -18 17 -33 21 -33 12 0 11 3 -18
54 -25 45 -41 63 -25 29z"/>
<path d="M8235 5450 c4 -6 11 -8 16 -5 14 9 11 15 -7 15 -8 0 -12 -5 -9 -10z"/>
<path d="M8438 5434 c-3 -11 -2 -28 2 -39 7 -17 9 -17 14 -4 4 8 3 26 -2 39
-8 22 -9 22 -14 4z"/>
<path d="M8630 5439 c0 -5 5 -7 10 -4 6 3 10 8 10 11 0 2 -4 4 -10 4 -5 0 -10
-5 -10 -11z"/>
<path d="M8404 5405 c-4 -9 -4 -19 0 -22 3 -4 6 -1 6 6 0 7 5 9 10 6 6 -3 10
-2 10 4 0 18 -20 23 -26 6z"/>
<path d="M9988 5372 c6 -62 12 -67 12 -9 0 25 -4 48 -9 51 -5 3 -6 -16 -3 -42z"/>
<path d="M8230 5396 c0 -2 9 -6 20 -9 11 -3 18 -1 14 4 -5 9 -34 13 -34 5z"/>
<path d="M8320 5386 c0 -2 7 -6 15 -10 8 -3 15 -1 15 4 0 6 -7 10 -15 10 -8 0
-15 -2 -15 -4z"/>
<path d="M8490 5320 c0 -40 2 -71 4 -69 7 7 10 129 3 136 -4 3 -7 -27 -7 -67z"/>
<path d="M8445 5350 c-3 -11 -3 -41 1 -66 4 -32 3 -49 -6 -54 -8 -5 -7 -9 4
-13 14 -6 16 5 16 73 0 81 -4 96 -15 60z"/>
<path d="M8225 5330 c3 -5 8 -10 11 -10 2 0 4 5 4 10 0 6 -5 10 -11 10 -5 0
-7 -4 -4 -10z"/>
<path d="M8262 5312 c-9 -7 -8 -13 8 -27 11 -10 20 -13 20 -7 0 7 -5 12 -11
12 -6 0 -9 7 -5 15 6 17 6 18 -12 7z"/>
<path d="M8670 5282 c0 -5 -10 -14 -22 -20 -13 -6 -18 -11 -12 -11 7 -1 22 8
35 19 13 10 18 19 12 20 -7 0 -13 -4 -13 -8z"/>
<path d="M9993 5215 c0 -38 2 -53 4 -32 2 20 2 52 0 70 -2 17 -4 1 -4 -38z"/>
<path d="M8305 5260 c3 -5 11 -10 16 -10 6 0 7 5 4 10 -3 6 -11 10 -16 10 -6
0 -7 -4 -4 -10z"/>
<path d="M8340 5246 c0 -2 7 -7 16 -10 8 -3 12 -2 9 4 -6 10 -25 14 -25 6z"/>
<path d="M8380 5240 c0 -5 5 -10 10 -10 6 0 10 5 10 10 0 6 -4 10 -10 10 -5 0
-10 -4 -10 -10z"/>
<path d="M8491 5224 c0 -11 3 -14 6 -6 3 7 2 16 -1 19 -3 4 -6 -2 -5 -13z"/>
<path d="M8545 5230 c-8 -13 15 -13 35 0 12 8 11 10 -7 10 -12 0 -25 -4 -28
-10z"/>
<path d="M6454 5057 c-2 -7 -3 -120 -2 -252 l3 -240 333 -3 332 -2 0 255 0
255 -330 0 c-258 0 -332 -3 -336 -13z m521 -223 c5 -27 2 -41 -11 -55 -19 -22
-54 -25 -72 -7 -9 9 -15 9 -24 0 -17 -17 -53 -15 -69 4 -11 14 -13 14 -21 0
-20 -35 -88 -8 -88 35 0 16 -2 18 -14 7 -11 -11 -11 -15 3 -25 14 -11 14 -14
1 -23 -25 -16 -58 -11 -74 12 -20 28 -20 30 3 56 20 24 42 28 71 12 13 -7 21
-7 25 0 8 13 62 13 69 1 4 -5 19 -5 36 2 24 9 35 9 51 -1 13 -9 25 -10 32 -4
11 9 39 18 63 21 7 0 15 -15 19 -35z"/>
<path d="M6727 4823 c-13 -13 -7 -33 11 -33 19 0 49 17 42 23 -11 10 -47 17
-53 10z"/>
<path d="M6820 4820 c-12 -8 -13 -11 -1 -19 15 -9 51 -3 51 9 0 4 -7 11 -16
14 -19 7 -16 8 -34 -4z"/>
<path d="M6910 4810 c0 -15 5 -20 18 -18 9 2 17 10 17 18 0 8 -8 16 -17 18
-13 2 -18 -3 -18 -18z"/>
<path d="M7150 4815 l0 -255 409 0 c334 0 411 2 420 14 8 9 11 85 9 252 l-3
239 -417 3 -418 2 0 -255z m363 68 c31 -16 31 -16 15 -43 -14 -22 -3 -39 14
-22 8 8 15 9 25 1 10 -9 15 -6 21 12 l9 23 12 -22 c9 -17 17 -21 36 -16 17 4
25 2 25 -7 0 -12 2 -12 9 0 5 7 14 10 21 6 6 -4 20 1 31 11 17 15 22 16 29 4
8 -13 3 -68 -7 -80 -2 -2 -34 -6 -71 -8 -37 -2 -73 -9 -79 -14 -9 -7 -13 -7
-13 0 0 6 -26 12 -62 14 -58 3 -63 5 -62 26 1 21 -3 23 -46 26 -20 1 -60 37
-60 53 0 7 7 13 15 13 8 0 15 5 15 10 0 6 -11 10 -25 10 -16 0 -25 6 -25 16 0
13 11 14 73 8 39 -4 84 -13 100 -21z"/>
<path d="M7420 4865 c0 -11 11 -15 43 -15 39 1 41 2 23 15 -26 20 -66 19 -66
0z"/>
<path d="M7468 4813 c7 -3 16 -2 19 1 4 3 -2 6 -13 5 -11 0 -14 -3 -6 -6z"/>
<path d="M7518 4783 c6 -2 18 -2 25 0 6 3 1 5 -13 5 -14 0 -19 -2 -12 -5z"/>
<path d="M7638 4783 c7 -3 16 -2 19 1 4 3 -2 6 -13 5 -11 0 -14 -3 -6 -6z"/>
<path d="M90 4771 c0 -154 3 -282 8 -284 4 -3 7 123 7 279 0 156 -3 284 -7
284 -5 0 -8 -126 -8 -279z"/>
<path d="M8477 4813 c-4 -3 -7 -179 -7 -390 l0 -383 683 2 682 3 22 130 c30
182 71 476 79 568 l7 77 -730 0 c-401 0 -733 -3 -736 -7z m676 -268 c1 -5 -16
-11 -38 -13 -34 -3 -49 -13 -112 -78 -40 -42 -73 -81 -73 -88 0 -8 -8 -16 -17
-20 -10 -3 -26 -11 -35 -18 -29 -21 -31 -1 -4 45 14 24 26 48 26 53 0 5 -5 1
-11 -9 -15 -26 -54 -38 -84 -27 -21 8 -25 16 -25 53 0 53 37 95 94 104 56 9
80 -17 73 -79 -4 -27 -4 -48 -2 -48 2 0 20 23 40 50 39 53 60 69 110 81 37 9
55 7 58 -6z m-43 -125 c11 -11 23 -20 27 -20 3 0 3 3 0 7 -8 7 11 33 24 33 5
0 7 -11 3 -25 -4 -15 -2 -25 4 -25 6 0 12 10 14 23 3 21 7 22 121 25 115 2
117 2 118 -20 l0 -23 11 22 c10 21 17 22 107 20 l96 -2 3 -31 c3 -29 0 -32
-37 -41 -31 -8 -41 -8 -45 2 -3 8 -13 11 -26 8 -16 -4 -18 -8 -8 -14 9 -6 4
-9 -14 -9 -16 0 -28 6 -29 13 0 10 -2 10 -6 0 -7 -19 -21 -16 -28 7 -8 26 -22
26 -30 -1 -5 -15 -10 -18 -18 -10 -14 14 -30 15 -22 1 7 -11 -396 -19 -423 -8
-11 4 -5 7 18 7 26 1 31 4 22 13 -16 16 -15 55 1 61 33 14 98 6 117 -13z"/>
<path d="M8822 4497 c-23 -24 -30 -81 -11 -92 19 -12 55 4 67 30 10 22 9 25
-8 25 -22 0 -27 25 -7 33 18 7 34 -4 40 -28 3 -11 5 -4 4 15 -2 31 -5 35 -32
38 -22 2 -37 -4 -53 -21z"/>
<path d="M9000 4405 c0 -8 4 -15 8 -15 5 0 9 7 9 15 0 8 -4 15 -9 15 -4 0 -8
-7 -8 -15z"/>
<path d="M9046 4404 c-3 -9 -2 -23 4 -32 7 -14 9 -10 10 16 0 35 -5 41 -14 16z"/>
<path d="M9116 4375 c-19 -14 -19 -15 7 -15 19 0 25 4 21 15 -4 8 -7 15 -8 15
0 0 -10 -7 -20 -15z"/>
<path d="M9070 4370 c0 -5 5 -10 11 -10 5 0 7 5 4 10 -3 6 -8 10 -11 10 -2 0
-4 -4 -4 -10z"/>
<path d="M9178 4363 c7 -3 16 -2 19 1 4 3 -2 6 -13 5 -11 0 -14 -3 -6 -6z"/>
<path d="M9228 4363 c6 -2 18 -2 25 0 6 3 1 5 -13 5 -14 0 -19 -2 -12 -5z"/>
<path d="M9298 4363 c7 -3 16 -2 19 1 4 3 -2 6 -13 5 -11 0 -14 -3 -6 -6z"/>
<path d="M9967 4740 c-3 -25 -8 -61 -11 -80 -2 -19 -10 -70 -16 -112 -8 -54
-9 -86 -2 -105 9 -25 10 -23 8 19 -1 27 2 44 8 41 5 -4 7 12 3 40 -4 30 -3 47
4 47 6 0 8 4 5 9 -3 5 -1 34 5 65 5 31 9 71 7 89 -4 29 -4 28 -11 -13z"/>
<path d="M6468 4533 c-17 -4 -18 -24 -18 -239 l0 -234 335 0 335 0 0 240 0
240 -317 -1 c-175 -1 -326 -3 -335 -6z m220 -185 c9 -9 12 -9 12 0 0 8 39 11
135 9 126 -1 151 -6 124 -23 -8 -4 -8 -9 0 -17 6 -6 11 -14 11 -17 0 -7 -328
-11 -352 -4 -18 5 -25 44 -11 57 11 12 68 8 81 -5z m368 -215 c7 -7 18 -13 24
-13 25 0 -11 -38 -42 -43 -43 -7 -74 23 -56 53 8 13 15 15 19 8 4 -6 12 -2 20
13 9 18 14 20 17 9 3 -8 11 -20 18 -27z"/>
<path d="M6815 4331 c-7 -12 12 -24 25 -16 11 7 4 25 -10 25 -5 0 -11 -4 -15
-9z"/>
<path d="M7150 4300 l0 -240 418 2 417 3 0 235 0 235 -417 3 -418 2 0 -240z
m263 60 c8 33 25 23 39 -22 l13 -43 3 38 c2 25 8 37 18 37 12 0 14 -11 12 -47
-3 -44 -5 -48 -30 -50 -21 -1 -29 4 -36 25 -9 27 -9 27 -16 5 -9 -27 -21 -29
-35 -5 -6 9 -11 11 -11 5 0 -7 -6 -13 -14 -13 -11 0 -12 8 -6 34 12 54 21 62
40 38 17 -21 18 -21 23 -2z m127 -31 c0 -52 25 -53 37 -2 13 54 37 54 56 1
l16 -43 -6 41 c-6 51 10 64 34 28 l17 -27 7 24 c6 21 7 21 8 -8 2 -53 31 -35
31 19 0 11 5 18 13 16 17 -6 37 -48 37 -80 0 -29 -17 -38 -26 -14 -5 12 -9 12
-32 0 -25 -13 -29 -12 -44 7 -13 15 -18 17 -18 6 0 -19 -50 -29 -56 -12 -4 10
-11 10 -35 -2 -45 -22 -63 -14 -67 31 -2 21 -1 45 2 53 10 26 26 3 26 -38z
m-57 -96 c-13 -2 -33 -2 -45 0 -13 2 -3 4 22 4 25 0 35 -2 23 -4z m135 0 c-10
-2 -26 -2 -35 0 -10 3 -2 5 17 5 19 0 27 -2 18 -5z m80 0 c-10 -2 -26 -2 -35
0 -10 3 -2 5 17 5 19 0 27 -2 18 -5z"/>
<path d="M92 4253 c-1 -122 1 -224 6 -226 4 -3 6 72 4 166 -4 275 -8 299 -10
60z"/>
<path d="M9920 4374 c-7 -19 -9 -38 -6 -41 3 -4 6 1 6 11 0 9 5 14 10 11 6 -4
10 7 10 24 0 41 -6 39 -20 -5z"/>
<path d="M9902 4250 c0 -14 2 -19 5 -12 2 6 2 18 0 25 -3 6 -5 1 -5 -13z"/>
<path d="M9892 4180 c0 -14 2 -19 5 -12 2 6 2 18 0 25 -3 6 -5 1 -5 -13z"/>
<path d="M9876 4113 c-11 -56 -18 -128 -13 -123 8 7 29 141 23 147 -2 2 -7 -8
-10 -24z"/>
<path d="M6450 3795 l0 -235 493 2 492 3 3 233 2 232 -495 0 -495 0 0 -235z
m530 129 c30 -10 52 -23 55 -35 7 -20 -10 -59 -26 -59 -5 0 -28 -9 -50 -20
-26 -12 -39 -15 -36 -7 3 7 -1 21 -9 32 -8 10 -14 22 -14 27 0 16 28 8 41 -12
12 -17 17 -18 39 -7 26 13 41 57 20 57 -7 0 -20 -10 -31 -22 l-18 -23 -1 28
c0 31 -23 45 -44 28 -17 -14 -29 -2 -15 16 15 17 30 16 89 -3z m-219 -175 c15
-17 25 -20 57 -14 35 6 40 4 45 -17 5 -18 9 -20 19 -10 10 10 10 17 1 31 -7
10 -9 22 -6 25 13 13 49 5 66 -14 19 -22 52 -26 63 -8 5 7 10 4 15 -10 5 -12
13 -22 20 -22 6 0 9 6 6 14 -3 8 0 22 7 31 12 17 14 17 42 -1 15 -11 44 -19
64 -19 31 0 35 -3 35 -25 0 -25 0 -25 -99 -26 -85 0 -100 -3 -108 -19 -10 -17
-11 -17 -24 -1 -11 16 -29 18 -138 17 -82 -1 -127 3 -132 10 -3 6 -1 15 5 19
7 4 11 11 10 16 -8 46 21 59 52 23z m608 -109 c3 0 12 -4 20 -9 10 -7 11 -13
2 -30 -15 -28 -71 -29 -96 -1 -17 19 -17 20 8 31 14 6 28 21 32 33 l6 21 11
-22 c6 -13 14 -23 17 -23z"/>
<path d="M7461 3801 l1 -230 26 -5 c15 -3 133 -5 262 -3 l235 2 3 233 2 232
-265 0 -266 0 2 -229z m229 129 c0 -5 -7 -10 -15 -10 -8 0 -15 5 -15 10 0 6 7
10 15 10 8 0 15 -4 15 -10z m50 0 c0 -5 -7 -10 -15 -10 -8 0 -15 5 -15 10 0 6
7 10 15 10 8 0 15 -4 15 -10z m-110 -20 c0 -5 -4 -10 -10 -10 -5 0 -10 5 -10
10 0 6 5 10 10 10 6 0 10 -4 10 -10z m225 0 c3 -5 -1 -10 -9 -10 -9 0 -16 5
-16 10 0 6 4 10 9 10 6 0 13 -4 16 -10z m-278 -36 c-9 -9 -28 6 -21 18 4 6 10
6 17 -1 6 -6 8 -13 4 -17z m-37 -24 c0 -5 -4 -10 -10 -10 -5 0 -10 5 -10 10 0
6 5 10 10 10 6 0 10 -4 10 -10z m390 0 c0 -5 -4 -10 -10 -10 -5 0 -10 5 -10
10 0 6 5 10 10 10 6 0 10 -4 10 -10z m-43 -16 c2 -7 -9 -17 -24 -22 -27 -10
-27 -11 -6 -17 25 -8 39 -35 22 -46 -17 -10 -112 -8 -126 3 -7 6 -14 5 -18 -2
-9 -15 -25 -12 -25 6 0 13 -2 14 -15 1 -15 -15 -103 -21 -124 -8 -7 5 -9 24
-5 54 l7 47 155 -2 c106 -2 157 -7 159 -14z m-357 -29 c0 -8 -7 -15 -15 -15
-16 0 -20 12 -8 23 11 12 23 8 23 -8z m412 0 c0 -5 -5 -11 -11 -13 -6 -2 -11
4 -11 13 0 9 5 15 11 13 6 -2 11 -8 11 -13z m-402 -55 c0 -5 -4 -10 -10 -10
-5 0 -10 5 -10 10 0 6 5 10 10 10 6 0 10 -4 10 -10z m390 6 c0 -11 -19 -15
-25 -6 -3 5 1 10 9 10 9 0 16 -2 16 -4z m-350 -51 c0 -8 -4 -15 -10 -15 -5 0
-10 7 -10 15 0 8 5 15 10 15 6 0 10 -7 10 -15z m320 5 c0 -5 -4 -10 -10 -10
-5 0 -10 5 -10 10 0 6 5 10 10 10 6 0 10 -4 10 -10z m-215 -39 c3 -5 1 -12 -5
-16 -5 -3 -10 1 -10 9 0 18 6 21 15 7z"/>
<path d="M7725 3810 c-3 -5 -1 -10 4 -10 6 0 11 5 11 10 0 6 -2 10 -4 10 -3 0
-8 -4 -11 -10z"/>
<path d="M8472 3788 l3 -233 625 0 625 0 46 200 c25 110 49 215 52 233 l7 32
-680 0 -680 0 2 -232z m716 15 c1 -59 -5 -83 -23 -83 -16 0 -16 121 0 132 16
12 22 0 23 -49z m-65 3 c34 -26 10 -75 -39 -76 -12 0 -33 9 -47 20 l-25 20
-16 -23 -15 -22 -22 25 c-12 14 -24 21 -26 15 -14 -38 -23 -40 -48 -12 -14 15
-25 35 -25 43 0 22 28 16 36 -8 l7 -23 8 23 c11 29 45 29 55 0 l7 -23 10 23
c10 22 37 31 37 11 0 -5 10 -3 22 5 27 19 57 20 81 2z m182 -10 c16 -16 22
-31 18 -45 -11 -42 -123 -19 -123 25 0 17 39 44 63 44 10 0 29 -11 42 -24z
m106 13 c11 -5 17 -15 13 -21 -4 -5 -1 -14 6 -18 7 -4 10 -15 7 -25 -5 -12
-17 -15 -49 -13 -23 2 -43 9 -46 15 -2 9 6 11 30 8 l33 -5 -35 13 c-41 16 -46
38 -10 48 14 4 26 7 28 8 2 1 12 -4 23 -10z"/>
<path d="M9062 3773 c4 -20 18 -26 37 -14 18 12 5 31 -20 31 -14 0 -19 -6 -17
-17z"/>
<path d="M9240 3776 c0 -8 5 -18 10 -21 13 -8 42 14 34 26 -9 15 -44 10 -44
-5z"/>
<path d="M97 3993 c-4 -3 -7 -103 -7 -221 0 -119 2 -213 5 -210 4 4 13 438 9
438 0 0 -4 -3 -7 -7z"/>
<path d="M9841 3933 c0 -25 1 -26 9 -8 12 27 12 35 0 35 -5 0 -10 -12 -9 -27z"/>
<path d="M9810 3818 c0 -9 5 -20 10 -23 13 -8 13 5 0 25 -8 13 -10 13 -10 -2z"/>
<path d="M2850 3770 c0 -6 7 -10 15 -10 8 0 15 2 15 4 0 2 -7 6 -15 10 -8 3
-15 1 -15 -4z"/>
<path d="M9790 3728 c0 -7 5 -20 10 -28 8 -12 10 -9 10 13 0 15 -4 27 -10 27
-5 0 -10 -6 -10 -12z"/>
<path d="M9767 3613 c-8 -48 -3 -52 10 -8 6 19 8 37 3 40 -4 2 -10 -12 -13
-32z"/>
<path d="M6450 3289 l0 -249 250 0 250 0 -2 248 -3 247 -247 2 -248 1 0 -249z
m85 92 c3 -6 26 -7 50 -4 29 3 51 1 60 -7 12 -10 15 -9 15 5 0 14 6 16 28 11
15 -4 73 -7 130 -7 102 0 102 0 102 -24 0 -23 -4 -25 -57 -27 -121 -3 -145 -1
-153 12 -6 10 -12 11 -22 3 -7 -5 -55 -11 -106 -12 -76 -2 -93 0 -98 13 -3 9
-4 23 0 31 6 17 41 20 51 6z m149 -139 c13 -1 16 -7 12 -19 -6 -17 -5 -17 7
-1 18 23 61 32 97 20 18 -7 32 -7 35 -1 10 14 45 11 45 -5 0 -8 3 -21 6 -30 5
-14 -9 -16 -115 -16 -114 0 -121 1 -121 20 0 11 -4 20 -9 20 -5 0 -8 -8 -7
-17 1 -14 -8 -19 -41 -21 -44 -3 -51 4 -34 37 9 16 48 20 125 13z m246 -42 c0
-5 -4 -10 -10 -10 -5 0 -10 5 -10 10 0 6 5 10 10 10 6 0 10 -4 10 -10z"/>
<path d="M6576 3233 c-12 -12 -6 -33 9 -33 8 0 15 6 15 14 0 17 -14 28 -24 19z"/>
<path d="M6751 3226 c-9 -10 -9 -16 -1 -21 17 -10 37 12 24 25 -8 8 -15 6 -23
-4z"/>
<path d="M6977 3533 c-3 -5 -5 -117 -4 -250 l0 -243 249 0 248 0 0 250 0 250
-244 0 c-135 0 -247 -3 -249 -7z m65 -180 c19 -22 20 -83 2 -83 -7 0 -14 -10
-16 -22 -2 -13 -10 -23 -18 -23 -12 0 -16 16 -18 73 -3 65 -1 72 16 72 10 0
26 -8 34 -17z m86 -55 c-2 -57 -6 -73 -18 -73 -11 0 -16 15 -18 59 -4 68 1 86
23 86 13 0 15 -12 13 -72z m92 57 c7 -9 15 -31 17 -50 3 -30 0 -35 -17 -35
-15 0 -20 -7 -20 -26 0 -16 -5 -24 -12 -22 -9 3 -14 30 -16 76 -3 65 -1 72 16
72 11 0 25 -7 32 -15z m103 -95 c-3 -11 -14 -20 -25 -20 -10 0 -16 5 -13 10 4
6 11 8 16 5 5 -4 9 1 9 9 0 9 4 16 9 16 5 0 7 -9 4 -20z m45 -8 c4 -24 -12
-30 -24 -10 -4 6 -2 14 5 16 11 4 11 6 0 14 -11 8 -11 9 1 5 8 -2 16 -13 18
-25z m55 17 c-6 -6 -9 -18 -6 -25 3 -8 -1 -14 -10 -14 -19 0 -17 33 3 42 22
10 25 9 13 -3z"/>
<path d="M7500 3290 l0 -250 245 0 245 0 -2 248 -3 247 -242 3 -243 2 0 -250z
m73 21 c14 -27 13 -31 -4 -47 -15 -13 -22 -15 -31 -6 -9 9 -9 12 3 12 10 1 10
4 -4 14 -18 14 -18 15 0 35 9 12 18 21 19 21 2 0 9 -13 17 -29z m67 -11 c12
-6 28 -6 48 1 21 7 42 7 66 1 23 -7 38 -7 42 -1 3 6 12 5 22 -3 12 -10 16 -10
19 -1 3 8 11 10 21 5 21 -9 53 -9 69 1 10 6 43 -26 43 -43 0 -9 -85 -8 -97 2
-7 5 -13 5 -17 0 -9 -15 -196 -15 -196 0 0 9 -3 9 -12 0 -30 -30 -57 -8 -42
32 7 19 9 19 34 6z"/>
<path d="M9747 3526 c-4 -10 -5 -21 -2 -24 9 -9 17 6 13 25 -3 17 -4 17 -11
-1z"/>
<path d="M8477 3523 c-4 -3 -7 -188 -7 -410 l0 -403 499 0 499 0 16 43 c22 59
115 348 121 372 2 11 20 74 40 140 64 217 68 233 62 249 -6 14 -70 16 -615 16
-335 0 -612 -3 -615 -7z m588 -244 c-9 -38 2 -70 21 -62 7 3 14 14 14 25 0 13
6 18 18 16 11 -2 16 -11 14 -26 -2 -12 1 -22 6 -22 12 0 26 30 23 51 -3 23 27
45 41 31 8 -8 7 -21 -6 -49 -9 -21 -18 -57 -19 -80 -1 -24 -8 -48 -15 -55 -14
-14 -178 -18 -223 -6 -24 7 -26 12 -28 65 0 32 -8 67 -17 81 -17 26 -12 52 10
52 14 0 18 -7 30 -62 8 -33 29 -38 24 -6 -4 33 28 36 36 4 4 -15 11 -26 16
-26 18 0 28 33 19 63 -11 38 6 64 28 46 9 -8 12 -22 8 -40z m-111 -240 c-18
-6 -18 -7 -1 -14 26 -11 22 -45 -5 -44 -13 0 -17 3 -10 6 6 2 10 9 6 14 -8 14
-24 11 -24 -6 0 -20 -20 -19 -36 3 -13 16 -13 16 -14 0 0 -34 -20 -18 -20 17
0 37 25 50 36 20 4 -8 10 -15 15 -15 4 0 6 7 3 15 -4 8 -1 15 5 15 6 0 11 -5
11 -11 0 -6 7 -3 16 5 8 9 21 13 27 9 7 -4 3 -9 -9 -14z m140 -13 c-3 -13 -1
-27 5 -30 7 -5 11 4 11 23 0 35 6 38 32 14 14 -13 19 -14 16 -4 -2 10 9 16 36
18 25 3 36 1 31 -6 -3 -6 -13 -11 -21 -11 -9 0 -14 -7 -12 -17 4 -22 28 -29
28 -9 0 9 5 16 10 16 6 0 10 -9 10 -19 0 -22 -37 -38 -52 -23 -6 6 -17 8 -24
5 -8 -3 -17 2 -20 11 -8 21 -26 21 -22 0 2 -13 -6 -16 -49 -16 -29 0 -57 1
-63 1 -10 1 -14 53 -5 63 3 2 25 6 50 6 43 2 45 1 39 -22z m-123 -91 c10 4 19
2 19 -3 0 -13 -65 -22 -101 -15 -16 3 -29 10 -29 15 0 6 6 8 14 5 8 -3 22 0
32 7 15 11 20 11 32 -1 8 -7 23 -11 33 -8z m245 5 c0 -17 -7 -20 -39 -20 -23
0 -36 4 -32 10 3 6 17 10 31 10 13 0 24 5 24 10 0 6 4 10 8 10 4 0 8 -9 8 -20z
m-130 -9 c20 3 35 -2 30 -9 -4 -7 -48 -9 -91 -3 -5 1 -1 8 9 16 13 10 23 12
32 4 6 -5 16 -9 20 -8z"/>
<path d="M9051 3026 c-8 -10 -8 -16 3 -25 11 -9 15 -7 19 9 6 25 -7 35 -22 16z"/>
<path d="M3581 3454 c0 -11 3 -14 6 -6 3 7 2 16 -1 19 -3 4 -6 -2 -5 -13z"/>
<path d="M90 3324 c0 -70 2 -125 6 -122 11 12 16 235 5 242 -8 5 -11 -30 -11
-120z"/>
<path d="M9711 3364 c0 -11 3 -14 6 -6 3 7 2 16 -1 19 -3 4 -6 -2 -5 -13z"/>
<path d="M9681 3293 c1 -4 -1 -16 -5 -25 -4 -9 -6 -27 -4 -40 3 -18 6 -14 15
20 6 25 7 44 2 48 -5 3 -9 2 -8 -3z"/>
<path d="M9657 3193 c-4 -3 -7 -11 -7 -17 0 -6 5 -5 12 2 6 6 9 14 7 17 -3 3
-9 2 -12 -2z"/>
<path d="M92 2634 c1 -302 4 -497 8 -434 6 131 2 972 -5 979 -3 2 -4 -243 -3
-545z"/>
<path d="M9631 3104 c0 -11 3 -14 6 -6 3 7 2 16 -1 19 -3 4 -6 -2 -5 -13z"/>
<path d="M9611 3044 c0 -11 3 -14 6 -6 3 7 2 16 -1 19 -3 4 -6 -2 -5 -13z"/>
<path d="M9592 2975 c-7 -14 -12 -31 -12 -38 1 -7 7 3 16 22 17 39 13 54 -4
16z"/>
<path d="M9530 2810 c0 -5 5 -10 10 -10 6 0 10 5 10 10 0 6 -4 10 -10 10 -5 0
-10 -4 -10 -10z"/>
<path d="M9506 2725 c-9 -26 -7 -32 5 -12 6 10 9 21 6 23 -2 3 -7 -2 -11 -11z"/>
<path d="M9480 2660 c-7 -18 -5 -49 3 -41 5 5 7 17 4 27 -3 11 -6 17 -7 14z"/>
<path d="M9453 2573 c-15 -5 -18 -33 -4 -33 8 0 25 30 19 35 -2 1 -9 0 -15 -2z"/>
<path d="M6448 2533 c-3 -10 -3 -96 0 -190 l5 -173 248 0 249 0 0 190 0 190
-249 0 c-228 0 -249 -1 -253 -17z m124 -156 c14 -22 8 -35 -22 -46 -22 -7 -38
-7 -55 1 -29 13 -32 30 -8 53 18 19 71 14 85 -8z m338 4 c0 -4 -5 -12 -12 -19
-9 -9 -8 -12 7 -12 37 0 7 -11 -44 -16 -49 -4 -52 -3 -46 16 4 11 2 20 -4 20
-6 0 -11 -8 -11 -18 0 -15 -11 -18 -100 -18 -98 -1 -100 -1 -100 22 0 12 6 24
13 27 20 7 297 5 297 -2z"/>
<path d="M6710 2360 c0 -5 5 -10 10 -10 6 0 10 5 10 10 0 6 -4 10 -10 10 -5 0
-10 -4 -10 -10z"/>
<path d="M6975 2362 l0 -187 238 -3 237 -2 0 190 0 190 -237 0 -238 0 0 -188z
m433 -4 c3 -17 -11 -18 -192 -18 -190 0 -196 1 -196 20 0 20 5 20 192 18 174
-3 193 -5 196 -20z"/>
<path d="M7480 2300 l0 -250 213 2 212 3 3 248 2 247 -215 0 -215 0 0 -250z
m165 55 c14 -13 25 -36 25 -50 0 -25 2 -26 50 -24 27 2 52 0 56 -3 3 -3 21 -2
40 3 43 12 64 2 54 -27 -8 -20 -15 -21 -102 -20 -51 1 -98 4 -104 8 -7 4 -17
1 -24 -7 -17 -21 -83 -19 -109 3 -12 9 -24 33 -27 52 -12 76 85 121 141 65z"/>
<path d="M7596 2325 c3 -16 11 -34 16 -40 6 -6 7 1 2 20 -3 17 -11 35 -16 40
-6 6 -7 -1 -2 -20z"/>
<path d="M7553 2321 c-11 -17 -10 -20 6 -18 12 1 17 7 13 19 -5 22 -5 22 -19
-1z"/>
<path d="M7940 2300 l0 -250 215 0 215 0 0 250 0 250 -215 0 -215 0 0 -250z
m366 54 c50 -24 61 -50 33 -80 -54 -57 -234 -70 -333 -23 -39 18 -46 26 -46
50 0 31 19 46 85 66 54 17 215 9 261 -13z"/>
<path d="M9436 2517 c3 -10 9 -15 12 -12 3 3 0 11 -7 18 -10 9 -11 8 -5 -6z"/>
<path d="M9421 2503 c-1 -6 -4 -20 -7 -30 -5 -17 -5 -17 6 0 6 10 9 23 6 30
-3 9 -5 9 -5 0z"/>
<path d="M9401 2424 c0 -11 3 -14 6 -6 3 7 2 16 -1 19 -3 4 -6 -2 -5 -13z"/>
<path d="M4955 2370 c-3 -5 -1 -10 4 -10 6 0 11 5 11 10 0 6 -2 10 -4 10 -3 0
-8 -4 -11 -10z"/>
<path d="M4681 2334 c0 -11 3 -14 6 -6 3 7 2 16 -1 19 -3 4 -6 -2 -5 -13z"/>
<path d="M9357 2313 c-4 -3 -7 -11 -7 -17 0 -6 5 -5 12 2 6 6 9 14 7 17 -3 3
-9 2 -12 -2z"/>
<path d="M9310 2215 c0 -8 5 -15 10 -15 6 0 10 7 10 15 0 8 -4 15 -10 15 -5 0
-10 -7 -10 -15z"/>
<path d="M9295 2175 c-3 -8 -7 -22 -10 -30 -2 -8 0 -15 5 -15 6 0 10 3 11 8 0
4 2 17 3 30 3 25 -2 29 -9 7z"/>
<path d="M6442 1963 l3 -178 503 -3 502 -2 0 180 0 180 -505 0 -505 0 2 -177z
m378 16 c0 -5 -10 -9 -22 -10 l-23 0 23 -9 c30 -13 28 -30 -4 -30 -14 0 -23
-4 -19 -10 4 -6 11 -8 16 -4 5 3 16 0 24 -6 13 -11 15 -6 15 34 0 46 0 46 34
46 19 0 38 -5 41 -10 5 -8 11 -7 20 0 25 21 59 8 66 -25 l7 -30 1 33 c1 32 21
47 21 15 0 -15 2 -15 19 1 22 20 62 18 69 -3 3 -10 -2 -12 -22 -7 -31 8 -46
-15 -26 -39 9 -11 16 -12 31 -2 10 6 19 16 19 21 0 32 69 62 85 36 4 -7 12 -7
25 0 44 24 80 2 80 -49 0 -36 -56 -54 -83 -26 -13 13 -16 13 -21 0 -6 -17 -39
-20 -66 -5 -13 7 -21 7 -25 0 -10 -15 -46 -12 -67 7 -17 15 -18 15 -18 0 0
-10 -4 -17 -10 -17 -5 0 -10 5 -10 11 0 8 -4 8 -14 -1 -22 -18 -61 -9 -62 15
-4 53 -4 51 -14 35 -5 -8 -7 -25 -3 -37 7 -29 -11 -30 -31 -1 -16 22 -17 21
-20 -4 -1 -8 -21 -14 -53 -16 -48 -3 -53 -2 -53 17 0 17 -6 21 -30 21 -23 0
-30 -4 -30 -20 0 -11 -4 -20 -9 -20 -8 0 -20 87 -13 95 8 8 152 3 152 -6z"/>
<path d="M6690 1960 c0 -5 7 -10 16 -10 8 0 12 5 9 10 -3 6 -10 10 -16 10 -5
0 -9 -4 -9 -10z"/>
<path d="M6860 1960 c0 -5 5 -10 10 -10 6 0 10 5 10 10 0 6 -4 10 -10 10 -5 0
-10 -4 -10 -10z"/>
<path d="M7146 1954 c-12 -30 13 -44 44 -24 13 8 12 11 -5 24 -26 20 -31 20
-39 0z"/>
<path d="M7237 1963 c-13 -12 -7 -41 8 -47 18 -6 30 16 21 39 -6 16 -18 19
-29 8z"/>
<path d="M6945 1920 c3 -5 8 -10 11 -10 2 0 4 5 4 10 0 6 -5 10 -11 10 -5 0
-7 -4 -4 -10z"/>
<path d="M9266 2104 c-4 -9 -4 -19 -1 -22 2 -3 7 3 11 12 4 9 4 19 1 22 -2 3
-7 -3 -11 -12z"/>
<path d="M9236 2029 c-9 -18 -14 -34 -12 -37 3 -2 12 10 21 28 9 18 14 34 12
37 -3 2 -12 -10 -21 -28z"/>
<path d="M2137 2014 c-4 -4 -7 -112 -7 -241 l0 -233 238 2 237 3 0 235 0 235
-230 3 c-127 2 -234 0 -238 -4z m179 -176 c7 -5 10 -25 7 -52 -4 -28 -1 -46 7
-51 8 -5 11 7 10 46 -2 72 -3 71 19 59 13 -7 22 -7 26 0 15 25 25 5 26 -52 1
-47 3 -57 9 -38 4 14 8 42 9 63 1 31 4 38 18 35 12 -2 21 -20 29 -58 l11 -55
4 55 4 55 38 2 c40 1 43 -3 23 -30 -10 -13 -11 -28 -5 -55 5 -20 9 -40 9 -44
0 -3 -24 -6 -52 -5 -50 2 -53 4 -59 32 l-7 30 -1 -31 -1 -31 -132 1 -132 1 3
60 c1 33 4 62 6 65 5 8 119 6 131 -2z"/>
<path d="M2632 1783 l3 -238 235 0 235 0 0 235 0 235 -238 3 -237 2 2 -237z
m273 97 c3 -6 -5 -10 -19 -10 -33 0 -70 -36 -90 -87 -16 -44 -9 -56 15 -27 9
11 22 14 43 10 17 -3 46 -2 64 2 28 6 36 14 47 45 17 49 33 67 59 67 47 0 60
-42 24 -80 -29 -31 -33 -71 -8 -77 11 -3 17 -9 14 -14 -2 -5 -68 -7 -144 -6
-108 2 -141 0 -144 -10 -8 -21 -54 -35 -77 -23 -41 22 -16 70 36 70 28 0 33 4
44 40 17 57 66 110 101 110 16 0 32 -4 35 -10z"/>
<path d="M3000 1828 c-10 -18 -18 -34 -15 -36 9 -9 55 32 55 49 0 29 -18 23
-40 -13z"/>
<path d="M2985 1757 c-4 -10 -5 -21 -1 -24 10 -10 18 4 13 24 -4 17 -4 17 -12
0z"/>
<path d="M2940 1746 c0 -8 4 -17 9 -20 5 -4 7 3 4 14 -6 23 -13 26 -13 6z"/>
<path d="M2895 1739 c-11 -17 1 -21 15 -4 8 9 8 15 2 15 -6 0 -14 -5 -17 -11z"/>
<path d="M2718 1712 c-10 -2 -18 -8 -18 -13 0 -13 27 -11 35 2 9 13 4 16 -17
11z"/>
<path d="M4240 1790 c0 -126 -1 -233 -2 -237 -2 -5 105 -8 237 -8 l240 0 0
235 0 235 -237 3 -238 2 0 -230z m167 45 c19 -8 57 -17 83 -19 59 -4 73 -12
65 -37 -11 -34 13 -20 26 16 17 47 33 44 54 -10 13 -36 14 -49 5 -60 -16 -19
-39 -19 -122 1 -53 13 -68 21 -68 35 0 12 -5 16 -15 13 -8 -4 -15 -12 -15 -20
0 -8 -7 -14 -15 -14 -8 0 -15 5 -15 12 0 9 -3 9 -12 0 -19 -19 -66 -15 -78 8
-8 14 -7 29 4 55 17 40 42 45 103 20z"/>
<path d="M4330 1786 c0 -17 5 -26 16 -26 10 0 14 7 12 22 -5 32 -28 35 -28 4z"/>
<path d="M4590 1749 c0 -6 -7 -8 -16 -5 -8 3 -12 2 -9 -4 3 -6 17 -10 30 -10
18 0 23 4 19 15 -7 17 -24 20 -24 4z"/>
<path d="M90 1917 c0 -60 4 -97 10 -97 10 0 4 178 -6 189 -2 2 -4 -39 -4 -92z"/>
<path d="M135 1935 c-4 -42 -4 -98 0 -125 l7 -50 171 -2 172 -3 3 -42 3 -43
310 0 309 0 0 170 0 170 -484 0 -484 0 -7 -75z m575 -6 c0 -8 4 -8 14 0 8 7
27 11 43 9 21 -2 29 -9 32 -28 1 -14 7 -28 12 -31 5 -3 7 -13 3 -23 -6 -16
-22 -17 -165 -14 -125 2 -160 0 -164 -10 -7 -18 -46 -11 -59 11 -9 14 -7 21 8
32 13 10 17 21 12 39 l-6 26 135 0 c93 0 135 -3 135 -11z"/>
<path d="M530 1890 c0 -19 3 -21 12 -12 9 9 9 15 0 24 -9 9 -12 7 -12 -12z"/>
<path d="M621 1884 c0 -11 3 -14 6 -6 3 7 2 16 -1 19 -3 4 -6 -2 -5 -13z"/>
<path d="M671 1884 c0 -11 3 -14 6 -6 3 7 2 16 -1 19 -3 4 -6 -2 -5 -13z"/>
<path d="M9210 1965 c-6 -8 -10 -19 -8 -26 2 -6 9 0 16 15 13 29 10 33 -8 11z"/>
<path d="M9170 1879 c0 -5 5 -7 10 -4 6 3 10 8 10 11 0 2 -4 4 -10 4 -5 0 -10
-5 -10 -11z"/>
<path d="M3525 1830 c3 -5 8 -10 11 -10 2 0 4 5 4 10 0 6 -5 10 -11 10 -5 0
-7 -4 -4 -10z"/>
<path d="M9119 1774 c-6 -16 -17 -44 -25 -61 -7 -18 -11 -33 -8 -33 8 0 56
112 50 118 -3 2 -10 -8 -17 -24z"/>
<path d="M6448 1628 c-2 -72 -1 -153 0 -180 l4 -48 499 0 499 0 0 174 c0 172
0 174 -22 180 -13 3 -238 6 -500 6 l-476 0 -4 -132z m242 12 c0 -5 14 -7 33
-3 31 6 32 6 15 -14 -14 -15 -15 -22 -6 -31 18 -18 36 -14 43 8 7 23 32 50 45
50 5 0 21 -17 35 -37 l25 -38 0 32 c0 64 37 49 42 -16 2 -29 8 -46 18 -48 12
-4 12 -3 2 5 -9 6 -12 25 -10 53 3 44 3 44 38 41 19 -2 39 -9 44 -17 8 -11 12
-11 22 3 8 10 24 15 48 14 37 -3 70 -3 119 0 32 1 47 -10 28 -21 -9 -6 -10
-11 -2 -15 17 -11 13 -43 -6 -51 -16 -6 -15 -8 5 -16 50 -19 4 -28 -159 -29
-166 -1 -171 0 -166 19 5 22 -14 34 -40 24 -14 -5 -13 -8 6 -15 26 -9 19 -28
-10 -28 -13 0 -19 7 -19 24 0 30 -28 42 -49 21 -15 -15 -14 -16 4 -13 12 2 21
-3 23 -14 3 -16 -6 -18 -77 -18 -63 0 -81 3 -81 14 0 8 14 17 31 21 24 5 28
10 19 19 -10 8 -14 8 -17 -1 -5 -14 -32 -18 -34 -5 -6 35 -5 60 2 75 10 18 29
23 29 7z"/>
<path d="M7071 1606 c-9 -11 -8 -15 5 -20 20 -8 39 7 30 23 -10 15 -21 14 -35
-3z"/>
<path d="M7137 1574 c-21 -28 -17 -40 9 -30 9 3 14 12 11 20 -3 7 0 19 6 25 6
6 7 11 2 11 -6 0 -18 -12 -28 -26z"/>
<path d="M7020 1583 c0 -15 28 -43 43 -43 6 0 5 5 -3 13 -8 6 -21 18 -27 26
-8 9 -13 10 -13 4z"/>
<path d="M6967 1566 c-3 -8 -2 -18 3 -21 13 -8 20 9 11 24 -6 10 -10 9 -14 -3z"/>
<path d="M91 1418 c-1 -185 2 -278 9 -278 12 0 12 409 0 500 -4 32 -8 -59 -9
-222z"/>
<path d="M9059 1665 c-1 -11 -1 -23 0 -27 0 -5 -3 -8 -7 -8 -11 0 -35 -51 -28
-58 3 -3 9 4 13 14 3 10 16 31 27 47 15 21 17 30 8 39 -9 9 -12 8 -13 -7z"/>
<path d="M136 1541 c-7 -10 -6 -437 0 -461 3 -13 69 -15 499 -18 l495 -3 0
246 0 245 -494 0 c-285 0 -497 -4 -500 -9z m523 -130 c8 -5 11 -16 8 -25 -7
-19 -3 -20 24 -5 30 15 73 -32 64 -70 -8 -30 -21 -41 -52 -41 -14 0 -23 6 -23
15 0 12 -4 13 -26 3 -20 -9 -30 -9 -45 0 -25 16 -30 15 -23 -2 4 -10 -3 -16
-23 -19 -32 -5 89 -9 185 -7 61 1 62 1 63 -27 2 -26 2 -25 8 6 6 33 7 34 24
17 9 -10 17 -13 17 -7 0 6 7 11 16 11 11 0 14 -5 10 -16 -3 -9 -6 -25 -6 -36
0 -17 -2 -19 -16 -7 -10 8 -18 9 -22 2 -4 -5 -33 -10 -64 -11 -47 0 -58 3 -59
16 -1 14 -2 14 -5 2 -3 -11 -18 -16 -45 -17 -33 -2 -42 2 -46 17 -3 11 -9 17
-14 15 -4 -3 -6 -12 -2 -20 3 -9 -1 -15 -11 -15 -10 0 -16 9 -16 23 0 14 -6
24 -15 24 -9 0 -15 -10 -15 -23 0 -20 -4 -23 -37 -20 -30 1 -38 6 -43 26 l-6
25 -7 -26 c-11 -42 -57 -31 -72 19 -6 19 -3 22 24 22 18 0 31 -5 32 -12 0 -10
2 -10 6 0 2 7 22 12 45 12 34 0 39 3 33 18 -19 44 -17 63 9 89 20 20 29 24 38
15 17 -17 28 -15 28 6 0 32 28 42 59 23z"/>
<path d="M650 1230 c0 -13 7 -18 20 -17 11 1 20 7 20 13 0 6 -9 14 -20 17 -15
4 -20 0 -20 -13z"/>
<path d="M752 1230 c0 -14 2 -19 5 -12 2 6 2 18 0 25 -3 6 -5 1 -5 -13z"/>
<path d="M500 1225 c0 -8 5 -15 10 -15 6 0 10 7 10 15 0 8 -4 15 -10 15 -5 0
-10 -7 -10 -15z"/>
<path d="M7510 1530 c0 -5 5 -10 10 -10 6 0 10 5 10 10 0 6 -4 10 -10 10 -5 0
-10 -4 -10 -10z"/>
<path d="M8965 1530 c3 -5 8 -10 11 -10 2 0 4 5 4 10 0 6 -5 10 -11 10 -5 0
-7 -4 -4 -10z"/>
<path d="M7480 1485 c0 -14 4 -25 9 -25 4 0 6 11 3 25 -2 14 -6 25 -8 25 -2 0
-4 -11 -4 -25z"/>
<path d="M7480 1418 c0 -36 4 -35 14 5 4 16 2 27 -4 27 -5 0 -10 -14 -10 -32z"/>
<path d="M6450 1200 l0 -170 500 0 500 0 0 170 0 170 -500 0 -500 0 0 -170z
m362 -27 c-8 -23 -67 -15 -92 12 -28 30 -40 32 -40 6 0 -30 -19 -35 -26 -7 -9
35 2 46 45 46 25 0 44 -7 56 -20 23 -25 35 -26 35 -2 0 10 3 22 8 26 8 9 20
-43 14 -61z m353 57 c6 -2 18 0 28 5 37 16 64 -39 31 -66 -12 -10 -20 -10 -34
-1 -11 6 -21 8 -24 4 -2 -4 -40 -7 -83 -7 -73 0 -78 1 -81 23 -4 27 -32 30
-32 3 0 -11 -9 -21 -22 -25 -39 -10 -48 -7 -60 20 l-12 25 -12 -23 c-11 -21
-13 -21 -19 -5 -13 31 2 49 37 45 23 -2 33 -8 33 -20 0 -19 19 -25 21 -8 1 6
2 14 3 19 0 5 9 11 19 13 19 4 191 2 207 -2z"/>
<path d="M7076 1213 c-11 -11 -6 -23 9 -23 8 0 15 4 15 9 0 13 -16 22 -24 14z"/>
<path d="M7136 1213 c-11 -11 -6 -23 8 -23 8 0 17 4 20 9 7 10 -19 23 -28 14z"/>
<path d="M1577 1274 c-4 -4 -7 -82 -7 -173 l0 -166 260 0 260 0 -2 170 -3 170
-251 3 c-138 1 -253 -1 -257 -4z m337 -105 c2 -2 7 -15 11 -28 6 -20 4 -23 -9
-18 -11 4 -16 1 -16 -11 0 -15 10 -18 78 -17 l77 0 0 -30 c0 -28 -2 -30 -35
-27 -36 3 -73 3 -87 1 -4 -1 -20 -1 -35 0 -21 1 -28 7 -31 29 -4 24 -4 24 -6
-6 -1 -42 -22 -38 -33 6 -11 42 -32 55 -23 14 6 -27 3 -32 -17 -37 -50 -11
-168 -12 -178 -1 -13 17 -6 68 12 80 20 12 49 0 42 -18 -4 -10 2 -14 20 -12
14 0 26 4 26 8 0 4 11 3 25 -2 20 -8 27 -6 35 10 6 11 8 20 5 20 -3 0 -1 9 5
19 5 11 22 21 37 23 37 4 92 2 97 -3z"/>
<path d="M2647 1273 c-4 -3 -7 -163 -7 -355 l0 -348 225 0 225 0 0 355 0 355
-218 0 c-120 0 -222 -3 -225 -7z m88 -313 c3 -6 17 -7 30 -4 12 3 26 1 30 -6
4 -7 11 -8 18 -2 14 11 156 10 174 -1 6 -4 14 -3 18 3 10 16 43 12 53 -6 19
-34 3 -55 -42 -55 -22 1 -54 1 -71 1 -16 0 -31 4 -33 9 -2 7 -10 7 -23 1 -10
-6 -28 -14 -38 -20 -14 -7 -21 -5 -25 7 -4 10 -12 13 -24 8 -27 -11 -85 -16
-109 -10 -29 7 -30 38 -1 65 24 22 34 25 43 10z"/>
<path d="M2700 935 c-7 -8 -11 -17 -8 -20 8 -8 49 8 45 18 -6 18 -23 19 -37 2z"/>
<path d="M3650 925 l0 -355 225 0 225 0 0 355 0 355 -225 0 -225 0 0 -355z
m155 65 c-3 -5 -17 -10 -31 -10 -13 0 -24 -4 -24 -10 0 -5 5 -10 10 -10 6 0
10 -4 10 -10 0 -5 -6 -10 -14 -10 -7 0 -19 -7 -27 -16 -11 -14 -9 -15 16 -12
20 2 37 14 53 38 28 43 42 49 49 21 5 -18 10 -20 46 -14 l40 6 -7 -29 -6 -29
21 28 c18 23 28 27 70 27 41 0 49 -3 49 -19 0 -10 -9 -29 -20 -42 -16 -19 -21
-21 -29 -10 -6 9 -11 10 -15 2 -12 -18 -39 -13 -32 6 6 15 5 16 -11 1 -26 -22
-259 -24 -267 -2 -7 18 10 54 24 54 6 0 10 9 10 19 0 23 13 29 58 30 20 1 31
-3 27 -9z"/>
<path d="M3821 926 c-7 -8 -8 -17 -3 -20 6 -3 13 1 16 10 9 23 2 28 -13 10z"/>
<path d="M3865 919 c-11 -17 1 -21 15 -4 8 9 8 15 2 15 -6 0 -14 -5 -17 -11z"/>
<path d="M4130 925 l0 -355 240 0 240 0 -2 353 -3 352 -237 3 -238 2 0 -355z
m460 3 c0 -10 1 -21 3 -25 1 -5 -50 -8 -113 -9 -97 -1 -116 1 -122 15 -6 14
-7 14 -7 0 -1 -13 -16 -16 -103 -15 -98 1 -103 2 -106 23 -4 27 3 28 256 28
177 1 192 -1 192 -17z"/>
<path d="M4637 1273 c-3 -3 -6 -162 -7 -354 l0 -349 250 0 250 0 -2 353 -3
352 -241 2 c-133 1 -244 -1 -247 -4z m207 -282 c-27 -17 -54 -47 -78 -88 -13
-23 8 -14 40 16 24 23 34 27 43 18 12 -12 220 -18 219 -7 -1 20 5 20 21 1 34
-39 18 -51 -69 -50 -70 1 -82 -2 -113 -25 -19 -14 -39 -26 -45 -26 -21 0 -13
26 11 38 18 10 9 12 -53 11 -131 -2 -170 1 -170 11 0 6 18 10 39 10 31 0 44 6
60 28 39 52 76 82 101 82 25 0 24 0 -6 -19z m217 -340 c7 11 9 10 9 -6 1 -19
1 -19 14 -2 8 10 16 14 19 10 3 -5 -4 -22 -17 -38 -29 -36 -70 -41 -96 -12
-24 25 -25 37 -4 37 8 0 12 4 9 10 -3 5 0 7 8 4 10 -3 17 4 22 23 l8 28 9 -34
c7 -26 12 -31 19 -20z"/>
<path d="M90 796 c2 -215 4 -266 16 -270 7 -3 16 -1 19 4 3 4 -1 10 -7 12 -10
4 -13 64 -13 261 0 141 -4 257 -8 257 -4 0 -7 -119 -7 -264z"/>
<path d="M7480 969 c0 -11 4 -18 10 -14 5 3 7 12 3 20 -7 21 -13 19 -13 -6z"/>
<path d="M3300 870 c-9 -6 -10 -10 -3 -10 6 0 15 5 18 10 8 12 4 12 -15 0z"/>
<path d="M6543 840 c-52 -31 -64 -66 -61 -178 l3 -97 243 -3 242 -2 0 150 0
150 -197 0 c-179 0 -201 -2 -230 -20z m40 -96 c-5 -13 3 -15 53 -13 49 2 60 0
62 -14 3 -14 -6 -17 -60 -18 -82 -2 -90 0 -105 19 -16 22 -17 40 -1 24 17 -17
38 -15 38 3 0 8 4 15 10 15 5 0 7 -7 3 -16z m217 -15 c0 -6 16 -10 38 -9 69 3
102 0 102 -10 0 -5 -12 -10 -26 -10 -14 0 -34 -5 -44 -10 -13 -7 -21 -7 -25 0
-3 5 -24 10 -45 10 -82 0 -98 34 -17 39 9 0 17 -4 17 -10z"/>
<path d="M272 533 c65 -2 171 -2 235 0 65 1 12 3 -117 3 -129 0 -182 -2 -118
-3z"/>
<path d="M1592 534 c7 -6 450 -5 457 1 2 3 -101 5 -229 5 -128 0 -231 -3 -228
-6z"/>
<path d="M2068 533 c7 -3 16 -2 19 1 4 3 -2 6 -13 5 -11 0 -14 -3 -6 -6z"/>
<path d="M2218 533 c46 -2 118 -2 160 0 42 1 5 3 -83 3 -88 0 -123 -2 -77 -3z"/>
<path d="M2588 533 c6 -2 18 -2 25 0 6 3 1 5 -13 5 -14 0 -19 -2 -12 -5z"/>
<path d="M2793 533 c53 -2 141 -2 195 0 53 1 9 3 -98 3 -107 0 -151 -2 -97 -3z"/>
<path d="M3118 533 c7 -3 16 -2 19 1 4 3 -2 6 -13 5 -11 0 -14 -3 -6 -6z"/>
<path d="M3332 533 c59 -2 158 -2 220 0 62 1 14 3 -107 3 -121 0 -172 -2 -113
-3z"/>
<path d="M3838 533 c50 -2 134 -2 185 0 50 1 9 3 -93 3 -102 0 -143 -2 -92 -3z"/>
<path d="M4158 533 c7 -3 16 -2 19 1 4 3 -2 6 -13 5 -11 0 -14 -3 -6 -6z"/>
<path d="M4918 533 c12 -2 32 -2 45 0 12 2 2 4 -23 4 -25 0 -35 -2 -22 -4z"/>
<path d="M4998 533 c6 -2 18 -2 25 0 6 3 1 5 -13 5 -14 0 -19 -2 -12 -5z"/>
<path d="M5120 529 c0 -5 5 -7 10 -4 6 3 10 8 10 11 0 2 -4 4 -10 4 -5 0 -10
-5 -10 -11z"/>
<path d="M6470 533 c0 -5 80 -7 177 -5 336 4 367 8 96 10 -150 1 -273 -1 -273
-5z"/>
<path d="M7153 533 c37 -2 96 -2 130 0 34 2 4 3 -68 3 -71 0 -99 -1 -62 -3z"/>
<path d="M5122 348 l-2 -168 48 2 47 1 -42 4 -43 4 -3 162 -3 162 -2 -167z"/>
<path d="M6473 455 c0 -22 2 -30 4 -17 2 12 2 30 0 40 -3 9 -5 -1 -4 -23z"/>
<path d="M1590 322 c0 -78 -4 -122 -12 -130 -9 -9 -8 -12 5 -12 15 0 17 14 17
130 0 72 -2 130 -5 130 -3 0 -5 -53 -5 -118z"/>
<path d="M1242 307 c-23 -35 -42 -66 -42 -70 0 -4 9 -7 20 -7 21 0 28 -24 10
-35 -7 -4 -7 -12 0 -25 5 -10 10 -32 10 -49 0 -30 2 -31 44 -31 l45 0 3 42 c2
29 8 43 18 44 48 5 52 7 20 13 -35 6 -58 41 -26 41 8 0 17 4 20 8 4 7 -49 97
-74 125 -4 4 -26 -21 -48 -56z"/>
<path d="M5241 308 c-38 -58 -39 -63 -20 -66 15 -3 20 -10 18 -30 -1 -15 -1
-46 -1 -69 l2 -43 45 0 c44 0 45 1 45 33 0 18 5 38 12 45 8 8 8 15 -1 26 -14
17 -7 36 15 36 8 0 14 3 14 7 0 10 -74 123 -81 123 -4 0 -25 -28 -48 -62z"/>
<path d="M6262 311 c-23 -34 -42 -64 -42 -67 0 -2 9 -4 20 -4 21 0 24 -8 14
-34 -5 -13 -27 -16 -128 -18 l-121 -2 125 -6 125 -5 3 -38 c3 -37 4 -37 47
-37 43 0 44 0 47 37 l3 38 63 3 62 3 -1 42 c0 42 -6 38 -23 -15 -6 -21 -75
-25 -94 -6 -19 19 -14 38 9 38 l20 0 -22 39 c-12 21 -31 51 -44 67 l-22 28
-41 -63z"/>
<path d="M5380 188 c0 -5 132 -7 293 -6 310 2 282 6 -76 10 -119 2 -217 0
-217 -4z"/>
<path d="M653 183 c15 -2 37 -2 50 0 12 2 0 4 -28 4 -27 0 -38 -2 -22 -4z"/>
<path d="M828 183 c12 -2 32 -2 45 0 12 2 2 4 -23 4 -25 0 -35 -2 -22 -4z"/>
<path d="M928 183 c7 -3 16 -2 19 1 4 3 -2 6 -13 5 -11 0 -14 -3 -6 -6z"/>
<path d="M1093 183 c20 -2 54 -2 75 0 20 2 3 4 -38 4 -41 0 -58 -2 -37 -4z"/>
<path d="M1478 183 c18 -2 45 -2 60 0 15 2 0 4 -33 4 -33 0 -45 -2 -27 -4z"/>
</g>
</svg>
