<?xml version="1.0" encoding="utf-8"?>
<!-- Generator: Adobe Illustrator 24.0.1, SVG Export Plug-In . SVG Version: 6.00 Build 0)  -->
<!DOCTYPE svg PUBLIC "-//W3C//DTD SVG 1.1//EN" "http://www.w3.org/Graphics/SVG/1.1/DTD/svg11.dtd" [
	<!ENTITY ns_extend "http://ns.adobe.com/Extensibility/1.0/">
	<!ENTITY ns_ai "http://ns.adobe.com/AdobeIllustrator/10.0/">
	<!ENTITY ns_graphs "http://ns.adobe.com/Graphs/1.0/">
	<!ENTITY ns_vars "http://ns.adobe.com/Variables/1.0/">
	<!ENTITY ns_imrep "http://ns.adobe.com/ImageReplacement/1.0/">
	<!ENTITY ns_sfw "http://ns.adobe.com/SaveForWeb/1.0/">
	<!ENTITY ns_custom "http://ns.adobe.com/GenericCustomNamespace/1.0/">
	<!ENTITY ns_adobe_xpath "http://ns.adobe.com/XPath/1.0/">
]>
<svg version="1.1" id="Слой_1" xmlns:x="&ns_extend;" xmlns:i="&ns_ai;" xmlns:graph="&ns_graphs;"
	 xmlns="http://www.w3.org/2000/svg" xmlns:xlink="http://www.w3.org/1999/xlink" x="0px" y="0px" viewBox="0 0 441 248"
	 style="enable-background:new 0 0 441 248;" xml:space="preserve">
<style type="text/css">
	.st0{fill:none;}
	.st1{fill:url(#SVGID_1_);}
</style>
<metadata>Created by CrazySquirrel (https://crazysquirrel.ru/)<sfw  xmlns="&ns_sfw;">
	<slices></slices>
	<sliceSourceBounds  bottomLeftOrigin="true" height="248.1" width="441" x="0" y="0"></sliceSourceBounds>
</sfw>
</metadata>
<pattern  y="248" width="72" height="72" patternUnits="userSpaceOnUse" id="lmgxoui" viewBox="0 -72 72 72" style="overflow:visible;">
	<g>
		<rect y="-72" class="st0" width="72" height="72"/>
		<rect x="36" y="-36" width="36" height="36"/>
		<rect y="-72" width="36" height="36"/>
	</g>
</pattern>
<g transform="translate(0.000000,248.000000) scale(0.100000,-0.100000)">
	<pattern  id="SVGID_1_" xlink:href="#lmgxoui" patternTransform="matrix(1 0 0 -1 35 -16391)">
	</pattern>
	<rect x="0" y="2480" class="st1" width="4410" height="-2480"/>
	<a>
		<path d="M2394,2468l-7-11l11,7l12,7v5v4h-4h-5L2394,2468z"/>
	</a>
	<a>
		<path d="M2417,2453l-10-23h-8h-7l9-41l10-42l-6-5l-5-6l-17,17l-17,17l11,40l10,40h-3h-3l-14-27l-14-28l4-13l5-13l-12-30l-13-30
			l-31-16l-31-16l-43-3l-43-4l-46-23l-46-23l-21-28l-21-27l2-52l2-51l-8-10l-9-11l-15-52l-16-52l-33-30l-33-29l16-19l17-18l-9-65
			l-8-65l21-18l20-17l40-6l39-7l22-17l21-18l-9-38l-10-39l-40-2l-40-2l-95-26l-95-25l-50-31l-50-30l-19-14l-18-14l26-23l27-23
			l-15-90l-16-90l-8-220l-9-220l3-90l2-90l7-88l6-89l29-143l30-144V73V45l6-23l6-22h54h54l-6,28l-7,27l-9,25l-9,25l-9,135l-10,135
			v145l-1,145l7,88l7,88l8,4l8,5l6-47l6-48l15-105l14-105l10-45l9-45l11-63l11-62l-2-53l-2-52l13-69l12-69l-21-37l-21-38V6V0h485
			h485v9v8l-15,43l-15,42l-25,176l-25,177l-12,65l-11,65l-24,64l-24,64l-10,101l-9,101l-7,118l-6,118l13,24l13,25l-16,18l-17,19v11
			v12h15h15v-12v-13l10,15l10,15v15v15l-10-15l-9-14l-8,8l-8,8l18,12l17,13l11,32l11,31h8h8l9-12l10-13l11-30l10-30l1,20l1,20
			l-21,34l-20,34l15-6l16-6v9v9l-20,11l-20,11v14v15h10h10l-12,20l-13,20h-12h-13l-2,13l-1,12l-1,10l-2,10l-7,12l-8,13l18,25l18,24
			l13,1h13l-6,9l-6,10l18,9l18,9l15-5l15-5l18-15l17-15v11v11l-23,13l-24,13l13,30l13,30l1-11v-11l23-25l23-24l11,3l11,4l4-17l3-17
			l14,16l13,17h-16h-16v9v9l-20,5l-20,5v20v20l-30,12l-31,13l4,11l3,11l30,15l30,15l33,25l33,25l15,28l14,29l-6,6l-6,6l-9-14l-10-15
			l-4-10l-4-10l-15,20l-16,20l20,3l19,3l14,20l14,20l-7,27l-8,27l-16-3l-17-3l6,16l6,15h-26h-27l-5,15l-6,15l-30-25l-30-25h-9h-9v8
			v9l18,15l17,15l15,6l15,5l-17,1l-16,1l-30-25l-30-25h-6h-6v25v25h25h25v9v9l-22,7l-23,7l-13-2l-13-1l11,20l11,21h8h8l12,27l13,28
			l-19,15l-18,15l-12,40l-12,40l-5,20l-4,20l-1-27l-1-28h-9h-9l6-22l5-21l-16,6l-17,6v-15v-15l11,7l12,7l-5-13l-4-13l-26-4l-26-3
			l-7,20l-7,21l12,30l13,30l-6,6l-6,6l13,31l13,31l6,40l6,40l-22-45l-22-45l-9-14l-9-15l-8,20l-8,19v-23l-1-23l-20,11l-20,11v-4v-4
			l20-23l20-23v-14v-13h-15h-15v-20v-20h-14h-14l-12,15l-12,15l-2,25l-1,25h-6h-7l-6,18l-6,17l-6,14l-7,14l28-7l27-7l-7,11l-6,10
			l30,39l31,39v6v6l-27-17l-27-18l7,18l7,18l-76-2l-76-3L2417,2453z"/>
	</a>
	<path d="M2426,2424l-6-17l-5,5l-5,5l6,17l6,17l5-5l5-5L2426,2424z"/>
	<path d="M2540,2425v-5h-5h-5v5v5h5h5V2425z"/>
	<path d="M2530,2406v-5l-10-6l-10-6v10v11h10h10V2406z"/>
	<path d="M2370,2345v-5h-5h-5v5v5h5h5V2345z"/>
	<path d="M2516,2323l-6-6l-6,6l-6,6l8,12l8,13l4-13l4-12L2516,2323z"/>
	<path d="M2657,2318l-5-13l-1,19l-1,19l6-6l6-6L2657,2318z"/>
	<path d="M2410,2290v-10h-11h-10l6,10l6,10h5h4V2290z"/>
	<path d="M2550,2282v-7l-10-15l-10-15l-9,15l-10,14l11,13l10,13l9-6l9-5V2282z"/>
	<path d="M2810,2179v-19h-10h-10v26v25l10-6l10-6V2179z"/>
	<path d="M2740,2051v-10l-10-6l-10-6v15v16h10h10V2051z"/>
	<path d="M2907,2007v-14h-14h-13v14v13h13h14V2007z"/>
	<path d="M2935,2010l6-10h-5h-5l-6,10l-6,10h5h5L2935,2010z"/>
	<path d="M2985,1955v-20l-27-3l-28-3v6v6l11,20l10,20l17-3l17-3V1955z"/>
	<path d="M2850,1810l-15-10h-10l-10,1l19,14l20,15l5-6l5-5L2850,1810z"/>
	<path d="M2890,1820v-10h-10h-10v10v10h10h10V1820z"/>
	<path d="M2856,1698l-6-23v-6v-7l-26-6l-26-7l-19,17l-19,17v9v10l28-2l27-2l13,1l13,1l-6,10l-6,10h17h16L2856,1698z"/>
	<path d="M2733,1659l38-31l-3-21l-3-20l-10-4l-10-3l-17,31l-18,31v14v15l-22,9l-23,9h15l15,1L2733,1659z"/>
	<path d="M2760,1535v-5h-5h-5v5v5h5h5V1535z"/>
	<path d="M2740,1485v-5h-5h-5v5v5h5h5V1485z"/>
	<path d="M2757,1348l-5-13l-1,19l-1,19l6-6l6-6L2757,1348z"/>
	<path d="M2590,835l10-80l10-114l11-114l26-51l25-51l-36,34l-36,35v18v18h-15h-14l-16,33l-15,32l-56,75l-55,74l4,46l3,45l22,44
		l22,45v10v11l27,53l27,54l23-69l23-68L2590,835z"/>
	<a>
		<path d="M2720,2475v-5h5h5v5v5h-5h-5V2475z"/>
	</a>
	<a>
		<path d="M2750,2355v-5h5h5v5v5h-5h-5V2355z"/>
	</a>
	<a>
		<path d="M2580,2325v-5h5h5v5v5h-5h-5V2325z"/>
	</a>
	<a>
		<path d="M2900,2085v-5h5h5v5v5h-5h-5V2085z"/>
	</a>
	<a>
		<path d="M2930,1625v-5h5h5v5v5h-5h-5V1625z"/>
	</a>
	<a>
		<path d="M2900,1577v-20l3,4l3,4l12,16l12,16h-15h-15V1577z"/>
	</a>
	<a>
		<path d="M2830,1470v-13l7,6l6,7l-6,7l-7,6V1470z"/>
	</a>
</g>
</svg>
