<?xml version="1.0" encoding="UTF-8" standalone="no"?>
<!DOCTYPE svg PUBLIC "-//W3C//DTD SVG 1.1//EN" "http://www.w3.org/Graphics/SVG/1.1/DTD/svg11.dtd">
<svg version="1.1" xmlns="http://www.w3.org/2000/svg" xmlns:xlink="http://www.w3.org/1999/xlink" preserveAspectRatio="xMidYMid meet" viewBox="0 0 1920 1080" width="1920" height="1080"><defs><path d="M509.09 852.73L641.82 852.73L641.82 1043.64L509.09 1043.64L509.09 852.73Z" id="k2UVnC1fJs"></path><clipPath id="clipaMZX9Z9xZ"><use xlink:href="#k2UVnC1fJs" opacity="1"></use></clipPath><path d="M1742.73 852.73L1875.45 852.73L1875.45 1043.64L1742.73 1043.64L1742.73 852.73Z" id="f40AebS9aO"></path><clipPath id="clipa1lhdY5Dtt"><use xlink:href="#f40AebS9aO" opacity="1"></use></clipPath><path d="M663.64 852.73L796.36 852.73L796.36 1043.64L663.64 1043.64L663.64 852.73Z" id="a1ydG43WhV"></path><path d="M817.27 852.73L950 852.73L950 1043.64L817.27 1043.64L817.27 852.73Z" id="b1bVjnrlNT"></path><path d="M969.09 852.73L1101.82 852.73L1101.82 1043.64L969.09 1043.64L969.09 852.73Z" id="a1htw7M3fm"></path><path d="M1124.55 852.73L1257.27 852.73L1257.27 1043.64L1124.55 1043.64L1124.55 852.73Z" id="dUg7ds1hd"></path><path d="M1281.82 852.73L1414.55 852.73L1414.55 1043.64L1281.82 1043.64L1281.82 852.73Z" id="im75TBTqJ"></path><path d="M1435.45 852.73L1568.18 852.73L1568.18 1043.64L1435.45 1043.64L1435.45 852.73Z" id="b4aqDxvc8n"></path><path d="M1587.27 852.73L1720 852.73L1720 1043.64L1587.27 1043.64L1587.27 852.73Z" id="daly3L1e2X"></path><path d="M1742.73 531.93L1875.45 531.93L1875.45 722.84L1742.73 722.84L1742.73 531.93Z" id="a4xmz9FnYn"></path><path d="M1587.27 531.93L1720 531.93L1720 722.84L1587.27 722.84L1587.27 531.93Z" id="e6S7Kh37x"></path><path d="M1435.45 531.93L1568.18 531.93L1568.18 722.84L1435.45 722.84L1435.45 531.93Z" id="a19QXL29Er"></path><path d="M1281.82 531.93L1414.55 531.93L1414.55 722.84L1281.82 722.84L1281.82 531.93Z" id="b1pNUgqUom"></path><path d="M1124.55 531.93L1257.27 531.93L1257.27 722.84L1124.55 722.84L1124.55 531.93Z" id="bKR6U1aG7"></path><path d="M969.09 531.93L1101.82 531.93L1101.82 722.84L969.09 722.84L969.09 531.93Z" id="a38K6VO7tn"></path><path d="M817.27 531.93L950 531.93L950 722.84L817.27 722.84L817.27 531.93Z" id="c6lPnmDqmY"></path><path d="M663.64 531.93L796.36 531.93L796.36 722.84L663.64 722.84L663.64 531.93Z" id="d1fcs5ssJv"></path><path d="M509.09 531.93L641.82 531.93L641.82 722.84L509.09 722.84L509.09 531.93Z" id="a2jee8lAqa"></path><path d="M45.45 531.93L485.45 531.93L485.45 1043.64L45.45 1043.64L45.45 531.93Z" id="bbTiE7zGo"></path></defs><g><g><g><use xlink:href="#k2UVnC1fJs" opacity="1" fill="#ffffff" fill-opacity="1"></use><g clip-path="url(#clipaMZX9Z9xZ)"><use xlink:href="#k2UVnC1fJs" opacity="1" fill-opacity="0" stroke="#000000" stroke-width="10" stroke-opacity="1"></use></g></g><g><use xlink:href="#f40AebS9aO" opacity="1" fill="#ffffff" fill-opacity="1"></use><g clip-path="url(#clipa1lhdY5Dtt)"><use xlink:href="#f40AebS9aO" opacity="1" fill-opacity="0" stroke="#000000" stroke-width="10" stroke-opacity="1"></use></g></g><g><use xlink:href="#a1ydG43WhV" opacity="1" fill="#000000" fill-opacity="1"></use></g><g><use xlink:href="#b1bVjnrlNT" opacity="1" fill="#000000" fill-opacity="1"></use></g><g><use xlink:href="#a1htw7M3fm" opacity="1" fill="#000000" fill-opacity="1"></use></g><g><use xlink:href="#dUg7ds1hd" opacity="1" fill="#000000" fill-opacity="1"></use></g><g><use xlink:href="#im75TBTqJ" opacity="1" fill="#000000" fill-opacity="1"></use></g><g><use xlink:href="#b4aqDxvc8n" opacity="1" fill="#000000" fill-opacity="1"></use></g><g><use xlink:href="#daly3L1e2X" opacity="1" fill="#000000" fill-opacity="1"></use></g><g><use xlink:href="#a4xmz9FnYn" opacity="1" fill="#000000" fill-opacity="1"></use></g><g><use xlink:href="#e6S7Kh37x" opacity="1" fill="#000000" fill-opacity="1"></use></g><g><use xlink:href="#a19QXL29Er" opacity="1" fill="#000000" fill-opacity="1"></use></g><g><use xlink:href="#b1pNUgqUom" opacity="1" fill="#000000" fill-opacity="1"></use></g><g><use xlink:href="#bKR6U1aG7" opacity="1" fill="#000000" fill-opacity="1"></use></g><g><use xlink:href="#a38K6VO7tn" opacity="1" fill="#000000" fill-opacity="1"></use></g><g><use xlink:href="#c6lPnmDqmY" opacity="1" fill="#000000" fill-opacity="1"></use></g><g><use xlink:href="#d1fcs5ssJv" opacity="1" fill="#000000" fill-opacity="1"></use></g><g><use xlink:href="#a2jee8lAqa" opacity="1" fill="#000000" fill-opacity="1"></use></g><g><use xlink:href="#bbTiE7zGo" opacity="1" fill="#000000" fill-opacity="1"></use></g></g></g></svg>